<?xml version="1.0" encoding="UTF-8"?>
<svg id="Layer_1" data-name="Layer 1" xmlns="http://www.w3.org/2000/svg" viewBox="0 0 337.19 383.33">
  <defs>
    <style>
      .cls-1 {
        stroke-width: 0px;
      }
    </style>
  </defs>
  <path class="cls-1" d="m292.1,0c.02,31.42,0,62.84.1,94.26,0,2.5-.78,3.08-3.16,3.08-80.3-.06-160.6-.06-240.9,0-2.39,0-3.17-.58-3.17-3.08.1-31.42.09-62.84.11-94.26h67.37c0,8.95.06,17.9-.07,26.85-.03,2.37.54,3.25,3.06,3.16,5.46-.19,10.94-.18,16.41,0,2.5.08,3.12-.77,3.09-3.16-.12-8.95-.04-17.9-.03-26.85h67.37c0,9.08.05,18.16-.06,27.24-.02,2.08.54,2.81,2.7,2.76,5.59-.14,11.2-.17,16.79.01,2.49.08,3.12-.74,3.09-3.14-.14-8.96-.06-17.91-.07-26.87h67.37Z"/>
  <path class="cls-1" d="m298.45,315.78H39.15c-.63-1.16.2-1.93.6-2.76,13.99-28.73,22.51-59.2,28.56-90.44,6.29-32.49,9.42-65.32,10.01-98.39.06-3.45.91-4.52,4.59-4.51,57.11.14,114.23.14,171.35,0,3.67,0,4.53,1.04,4.57,4.51.26,20.45,1.57,40.86,4.17,61.14,5.68,44.5,15.13,88.01,34.95,128.69.21.43.28.92.52,1.75Z"/>
  <path class="cls-1" d="m169.02,338.35c54.62,0,109.23.03,163.85-.08,3.36,0,4.38.77,4.32,4.25-.23,12.09-.23,24.19,0,36.28.07,3.54-.74,4.53-4.43,4.52-94.02-.12-188.04-.09-282.06-.09-15.71,0-31.42-.07-47.13.06-2.76.02-3.59-.64-3.55-3.49.16-12.47.18-24.94,0-37.41-.05-3.2.65-4.15,4.05-4.14,54.99.12,109.98.09,164.97.09Z"/>
</svg>