<?xml version="1.0" encoding="UTF-8"?>
<svg id="Layer_1" data-name="Layer 1" xmlns="http://www.w3.org/2000/svg" viewBox="0 0 307.01 383.33">
  <defs>
    <style>
      .cls-1 {
        stroke-width: 0px;
      }
    </style>
  </defs>
  <path class="cls-1" d="m225.42,0c6.43,2.83,8.58,7.78,8.33,14.69-.4,11.09-.06,22.21-.15,33.31-.02,2.14.62,3.72,1.99,5.36,20.97,25.07,41.88,50.18,62.78,75.31,7.74,9.3,7.86,19.02.36,28.56-4.24,5.39-8.53,10.75-12.84,16.08-7.37,9.14-17.2,11.3-27.67,6.07-16.72-8.35-33.43-16.7-50.12-25.11-3.73-1.88-7.47-2.72-11.48-1.07-7.93,3.28-9.93,13.01-3.75,19.48,7.8,8.16,14.71,16.94,20.14,26.85,9.4,17.15,14.1,35.54,14.64,55.06.08,2.86-.57,3.77-3.62,3.77-52.4-.1-104.81-.08-157.21-.03-2.33,0-3.41-.43-3.96-3.06-5.31-25.15-7.76-50.51-5.8-76.17,2.78-36.47,13.21-70.14,37.13-98.67,16.1-19.2,36.16-33.01,58.97-43.06,10.27-4.53,20.86-8.14,31.69-11.05,2.1-.56,3.9-1.46,5.56-2.87,7.88-6.71,15.8-13.38,23.77-19.99C215.78,2.13,217.67,1.15,219.43,0c2,0,3.99,0,5.99,0Zm.09,96.48c-.02-6.16-5.01-11.17-11.1-11.14-6.06.02-11.08,5.12-11.06,11.23.02,6.08,5.15,11.24,11.14,11.19,6.07-.04,11.04-5.13,11.02-11.28Z"/>
  <path class="cls-1" d="m153.34,383.33c-46.54,0-93.07,0-139.61,0-10.15,0-14.78-5.28-13.53-15.4,2.17-17.58,17.03-30.96,34.72-30.97,79.1-.04,158.2-.05,237.3,0,18.87.01,34.59,15.5,34.79,33.99.08,7.74-4.44,12.37-12.19,12.37-47.16.01-94.32,0-141.48,0Z"/>
  <path class="cls-1" d="m153.36,314.45c-39.8,0-79.6-.06-119.39.1-3.83.02-4.28-1.32-3.81-4.51,2.5-16.91,16.49-29.23,33.57-29.24,59.88-.04,119.77-.04,179.65,0,17.1.01,30.99,12.24,33.55,29.24.48,3.19.03,4.52-3.8,4.51-39.92-.16-79.84-.1-119.77-.1Z"/>
  <path class="cls-1" d="m167.23,7.99c-6.02,2.24-11.39,4.1-16.65,6.22-44.47,17.96-78.3,47.39-98.36,91.56-9.83,21.65-15,44.47-17.1,68.08-.96,10.81-.9,21.63-.83,33.01-8.08-3.45-16.04-6.24-23.38-10.36-3.36-1.89-4.87-5.41-4.73-9.24,2.13-60.17,20.51-113.64,65.11-156.03C96.52,7.26,134.38-1.9,167.23,7.99Z"/>
</svg>