<?xml version="1.0" encoding="UTF-8"?>
<svg id="Layer_1" data-name="Layer 1" xmlns="http://www.w3.org/2000/svg" viewBox="0 0 265.44 383.33">
  <defs>
    <style>
      .cls-1 {
        stroke-width: 0px;
      }
    </style>
  </defs>
  <path class="cls-1" d="m51.72,293.17c-5.9-9.33-11.24-18.64-15.59-28.48-21.87-49.35-18.03-97.26,8.36-143.77,13.05-23,30.01-42.83,50.03-60.05,2.08-1.79,2.8-3.26,1.91-6.13-2.76-8.88-4.53-17.91-3.09-27.35,2.02-13.27,9.39-21.79,22.19-25.44,8.24-2.35,16.7-2.56,25.1-.82,15.25,3.16,24.04,16.71,22.02,33.29-1.27,10.4-4.53,20.15-8.85,29.6-3.69,8.07-7.84,15.94-13.02,23.12-12.85,17.8-19.15,38.06-22.77,59.31-2.61,15.34-4.35,30.78-2.55,46.39.06.54.03,1.09.11,1.63.88,6.27.95,6.29,7.26,6.47,5.59.15,11.19.24,16.76.64,2.75.2,3.58-.85,3.69-3.37.59-13.62,1.85-27.2,3.47-40.73,2.5-20.96,5.29-41.87,12.13-61.98,1.59-4.66,3.49-9.17,6.34-13.21,5.28-7.51,12.02-8.96,19.81-4.12,10.05,6.25,17.5,15.17,24.2,24.67,21.41,30.37,33.82,63.91,34.36,101.32.45,31.33-8.76,59.86-26.27,85.73-2.02,2.98-2.15,4.04,1.81,4.67,5.24.84,10.29,2.61,15.16,4.72,20.1,8.73,30.07,24.43,30.96,46,.4,9.81.1,19.64.09,29.47,0,6.45-2.12,8.56-8.54,8.56-41.75,0-83.49,0-125.24,0-40.79,0-81.58,0-122.37,0-7.06,0-9.15-1.94-9.02-8.88.22-11.58-.77-23.19.6-34.74,2.47-20.8,14.28-34.1,33.42-41.55,5.59-2.17,11.46-3.34,17.55-4.99Z"/>
</svg>