<?xml version="1.0" encoding="utf-8"?>
<!-- Generator: Adobe Illustrator 28.0.0, SVG Export Plug-In . SVG Version: 6.00 Build 0)  -->
<svg version="1.1" id="Layer_1" xmlns="http://www.w3.org/2000/svg" xmlns:xlink="http://www.w3.org/1999/xlink" x="0px" y="0px"
	 viewBox="0 0 595.3 252.7" style="enable-background:new 0 0 595.3 252.7;" xml:space="preserve">
<style type="text/css">
	
		.st0{clip-path:url(#SVGID_00000042725612733490505940000007488329440092917176_);fill:url(#SVGID_00000018237501149369950300000017883941890659924379_);}
	
		.st1{clip-path:url(#SVGID_00000044862947018019348470000006060162209326453391_);fill:url(#SVGID_00000093136894899102664960000007170908038237905335_);}
	
		.st2{clip-path:url(#SVGID_00000006706932070146359150000007280398621198153135_);fill:url(#SVGID_00000041294310625491048080000009180605260472353156_);}
	
		.st3{clip-path:url(#SVGID_00000127007764707760718510000013314932944355085955_);fill:url(#SVGID_00000016037388400570274410000011608693638289889929_);}
	
		.st4{clip-path:url(#SVGID_00000074426384020278906820000013499978270059242378_);fill:url(#SVGID_00000028283881284930383280000014948991401720983215_);}
	.st5{fill:#6D6E70;}
	.st6{fill:#F26522;}
	.st7{fill-rule:evenodd;clip-rule:evenodd;fill:#FFFFFF;}
	
		.st8{clip-path:url(#SVGID_00000153686338284268269480000004432627833060402822_);fill:url(#SVGID_00000028326181200760021780000007937158934662101162_);}
	
		.st9{clip-path:url(#SVGID_00000119109728390961039340000004599307043955621012_);fill:url(#SVGID_00000019652490472239478780000001225304165725970321_);}
	
		.st10{clip-path:url(#SVGID_00000067207390502978476620000009030657115244056457_);fill:url(#SVGID_00000114067211067040519530000018095817532065558156_);}
	
		.st11{clip-path:url(#SVGID_00000029027895546013248920000014070793492291103395_);fill:url(#SVGID_00000080169170743785663310000009206975683418510221_);}
	
		.st12{clip-path:url(#SVGID_00000135668024635101429400000000643688558245264792_);fill:url(#SVGID_00000038400188205048897720000007605816240700633023_);}
</style>
<g>
	<g>
		<defs>
			<path id="SVGID_1_" d="M259.1,103c1.2,1.5,2.5,2.9,4,4.2c-3.8,0.1-7.5,1.9-9.9,5.2c-1.6,2.2-2.4,4.8-2.4,7.3
				c-1.3-1.2-2.5-2.5-3.6-3.8c0.4-2.4,1.3-4.7,2.8-6.7C252.3,106,255.6,103.9,259.1,103 M271.1,133.2c-1.2-0.5-2.4-1-3.5-1.6
				c2.3-0.8,4.4-2.4,5.9-4.5c2.4-3.4,3-7.6,1.8-11.3c1.4,0.7,2.9,1.4,4.4,1.9c0.2,3.6-0.7,7.4-3,10.6
				C275.1,130.4,273.2,132,271.1,133.2z M285.4,22.5c-11,2.8-21.2,9.3-28.4,19.3c-12.6,17.6-12.2,40.6-0.7,57.5
				c-3.8,1.4-7.3,3.9-9.8,7.4c-1.2,1.6-2.1,3.4-2.7,5.2c-17.5-23-18.7-55.6-1-80.3C259.6,8.1,288.7-1.3,315,5.7
				C304.3,10.5,293.7,16.7,285.4,22.5z M354.5,34.6c14.5,22.6,14.6,52.8-2,75.9c-17.7,24.7-49,33.8-76.4,24.6c1.5-1.2,2.9-2.6,4-4.2
				c2.5-3.5,3.8-7.6,3.9-11.7c19.7,5.6,41.6-1.4,54.3-19c7.1-9.8,10.1-21.4,9.3-32.6C351.2,56.6,353.6,45.3,354.5,34.6z"/>
		</defs>
		<clipPath id="SVGID_00000150071757641364063180000005568244295915746475_">
			<use xlink:href="#SVGID_1_"  style="overflow:visible;"/>
		</clipPath>
		
			<linearGradient id="SVGID_00000046309391651225778880000007910285855825865089_" gradientUnits="userSpaceOnUse" x1="264.503" y1="116.388" x2="335.3473" y2="18.8419">
			<stop  offset="0" style="stop-color:#F15A22"/>
			<stop  offset="1" style="stop-color:#F47920"/>
		</linearGradient>
		
			<rect x="225" y="-1.3" style="clip-path:url(#SVGID_00000150071757641364063180000005568244295915746475_);fill:url(#SVGID_00000046309391651225778880000007910285855825865089_);" width="144.1" height="145.6"/>
	</g>
	<g>
		<defs>
			<path id="SVGID_00000106833440890685726900000000635962188836304052_" d="M308.8,55.5c9.3,6.7,11.4,19.6,4.7,28.9
				c-6.7,9.3-19.6,11.4-28.9,4.7c-9.3-6.7-11.4-19.6-4.7-28.9C286.6,50.9,299.5,48.8,308.8,55.5 M314.9,47c14,10,17.1,29.5,7.1,43.5
				c-10,14-29.5,17.1-43.5,7.1c-14-10-17.1-29.5-7.1-43.5C281.5,40.2,300.9,37,314.9,47z"/>
		</defs>
		<clipPath id="SVGID_00000079473906532571418380000017492188097312096186_">
			<use xlink:href="#SVGID_00000106833440890685726900000000635962188836304052_"  style="overflow:visible;"/>
		</clipPath>
		
			<linearGradient id="SVGID_00000085225588481444566290000008240193059291902095_" gradientUnits="userSpaceOnUse" x1="251.6109" y1="135.0471" x2="334.1669" y2="20.2369">
			<stop  offset="0" style="stop-color:#F15A22"/>
			<stop  offset="1" style="stop-color:#F47920"/>
		</linearGradient>
		
			<rect x="261.4" y="37" style="clip-path:url(#SVGID_00000079473906532571418380000017492188097312096186_);fill:url(#SVGID_00000085225588481444566290000008240193059291902095_);" width="70.6" height="70.6"/>
	</g>
	<g>
		<defs>
			<path id="SVGID_00000034056350518213018500000006500190398745852860_" d="M269.2,110.5c4.6,3.3,5.6,9.6,2.3,14.2
				c-3.3,4.6-9.6,5.6-14.2,2.3c-4.6-3.3-5.6-9.6-2.3-14.2C258.3,108.3,264.7,107.3,269.2,110.5 M272.9,105.5
				c7.3,5.3,9,15.5,3.7,22.8c-5.3,7.3-15.5,9-22.8,3.7c-7.3-5.3-9-15.5-3.7-22.8C255.3,101.9,265.5,100.2,272.9,105.5z"/>
		</defs>
		<clipPath id="SVGID_00000083797178125219174660000010882644189632364697_">
			<use xlink:href="#SVGID_00000034056350518213018500000006500190398745852860_"  style="overflow:visible;"/>
		</clipPath>
		
			<linearGradient id="SVGID_00000145018076393110588210000005282963212152792485_" gradientUnits="userSpaceOnUse" x1="248.4813" y1="139.4163" x2="331.0042" y2="24.5951">
			<stop  offset="0" style="stop-color:#F15A22"/>
			<stop  offset="1" style="stop-color:#F47920"/>
		</linearGradient>
		
			<rect x="244.8" y="100.2" style="clip-path:url(#SVGID_00000083797178125219174660000010882644189632364697_);fill:url(#SVGID_00000145018076393110588210000005282963212152792485_);" width="37.1" height="37.1"/>
	</g>
	<g>
		<defs>
			<path id="SVGID_00000113329485984092538650000004502192692544689839_" d="M249.4,138.2c2.5,1.8,3.1,5.3,1.3,7.8
				c-1.8,2.5-5.3,3.1-7.8,1.3c-2.5-1.8-3.1-5.3-1.3-7.8C243.4,137,246.9,136.4,249.4,138.2 M251.5,135.3c4.1,3,5,8.7,2.1,12.8
				c-3,4.1-8.7,5-12.8,2.1c-4.1-3-5-8.7-2.1-12.8C241.6,133.3,247.3,132.3,251.5,135.3z"/>
		</defs>
		<clipPath id="SVGID_00000110473298409038662020000001900473815864257928_">
			<use xlink:href="#SVGID_00000113329485984092538650000004502192692544689839_"  style="overflow:visible;"/>
		</clipPath>
		
			<linearGradient id="SVGID_00000081615411999830297000000005823121945905006502_" gradientUnits="userSpaceOnUse" x1="246.125" y1="142.6858" x2="328.6811" y2="27.8756">
			<stop  offset="0" style="stop-color:#F15A22"/>
			<stop  offset="1" style="stop-color:#F47920"/>
		</linearGradient>
		
			<rect x="235.7" y="132.3" style="clip-path:url(#SVGID_00000110473298409038662020000001900473815864257928_);fill:url(#SVGID_00000081615411999830297000000005823121945905006502_);" width="20.8" height="20.8"/>
	</g>
	<g>
		<defs>
			<path id="SVGID_00000173155852442591308750000010235614460499741865_" d="M295.6,21c15.5-9.6,38-20.4,51.9-19.3l0.1,0l0,0h0
				l0,0.1c5.6,13.2,3.2,38-1.6,56.1c-2.9-10.7-9.4-20.5-19.1-27.5C317.4,23.6,306.4,20.6,295.6,21"/>
		</defs>
		<clipPath id="SVGID_00000005256863321064571800000001814365130815697540_">
			<use xlink:href="#SVGID_00000173155852442591308750000010235614460499741865_"  style="overflow:visible;"/>
		</clipPath>
		
			<linearGradient id="SVGID_00000179645929620027885810000013790662548569401741_" gradientUnits="userSpaceOnUse" x1="322.5251" y1="31.8943" x2="342.4052" y2="3.5919">
			<stop  offset="0" style="stop-color:#F26522"/>
			<stop  offset="0.41" style="stop-color:#F36F21"/>
			<stop  offset="1" style="stop-color:#F58220"/>
		</linearGradient>
		
			<rect x="295.6" y="0.6" style="clip-path:url(#SVGID_00000005256863321064571800000001814365130815697540_);fill:url(#SVGID_00000179645929620027885810000013790662548569401741_);" width="57.6" height="57.3"/>
	</g>
	<path class="st5" d="M86.1,238.9c1.2,0,2.2-0.4,2.9-1.2c0.8-0.8,1.2-1.8,1.2-3.1s-0.4-2.3-1.2-3.1c-0.8-0.8-1.7-1.2-2.9-1.2h-5v8.5
		H86.1z M86.1,226.6c2.3,0,4.2,0.8,5.8,2.3c1.5,1.5,2.3,3.4,2.3,5.7c0,2.3-0.8,4.2-2.3,5.7c-1.5,1.5-3.5,2.3-5.8,2.3h-5v8.4h-4
		v-24.4H86.1z"/>
	<path class="st5" d="M115.3,230.4v8.2h5.8c1.1,0,2-0.4,2.7-1.2c0.7-0.8,1.1-1.8,1.1-2.9s-0.4-2.1-1.1-2.9c-0.7-0.8-1.7-1.2-2.7-1.2
		H115.3z M125.2,251.1l-5.2-8.9h-4.8v8.9h-4v-24.4h9.8c2.2,0,4,0.8,5.6,2.3c1.5,1.5,2.3,3.4,2.3,5.6c0,1.6-0.4,3-1.3,4.3
		c-0.9,1.3-2.1,2.2-3.5,2.8l5.6,9.5H125.2z"/>
	<rect x="146.3" y="226.6" class="st5" width="4" height="24.4"/>
	<polygon class="st5" points="175,251.1 166.5,226.6 170.9,226.6 177.4,246.2 183.9,226.6 188.3,226.6 179.8,251.1 	"/>
	<path class="st5" d="M208.2,242.4h7.7l-3.9-11L208.2,242.4z M219,251.1l-1.7-4.9h-10.4l-1.7,4.9h-4.4l8.9-24.4h4.8l8.8,24.4H219z"
		/>
	<polygon class="st5" points="253.7,226.6 253.7,230.5 246.8,230.5 246.8,251.1 242.8,251.1 242.8,230.5 235.9,230.5 235.9,226.6 	
		"/>
	<polygon class="st5" points="274.3,247.2 285.1,247.2 285.1,251.1 270.3,251.1 270.3,226.6 284.9,226.6 284.9,230.5 274.3,230.5 
		274.3,236.8 284.1,236.8 284.1,240.6 274.3,240.6 	"/>
	<polygon class="st5" points="319,247.2 328.9,247.2 328.9,251.1 315,251.1 315,226.6 319,226.6 	"/>
	<rect x="345.5" y="226.6" class="st5" width="4" height="24.4"/>
	<polygon class="st5" points="391.4,226.6 391.4,251.1 387.4,251.1 387.4,233.6 379.9,245.9 379.4,245.9 372,233.6 372,251.1 
		368,251.1 368,226.6 372.3,226.6 379.7,238.8 387.1,226.6 	"/>
	<rect x="409.8" y="226.6" class="st5" width="4" height="24.4"/>
	<polygon class="st5" points="448.2,226.6 448.2,230.5 441.3,230.5 441.3,251.1 437.3,251.1 437.3,230.5 430.4,230.5 430.4,226.6 	
		"/>
	<polygon class="st5" points="468.8,247.2 479.6,247.2 479.6,251.1 464.8,251.1 464.8,226.6 479.4,226.6 479.4,230.5 468.8,230.5 
		468.8,236.8 478.6,236.8 478.6,240.6 468.8,240.6 	"/>
	<path class="st5" d="M506.5,247.2c2.3,0,4.2-0.8,5.6-2.4c1.5-1.6,2.2-3.6,2.2-6c0-2.4-0.7-4.5-2.2-6c-1.5-1.6-3.3-2.4-5.6-2.4h-5.6
		v16.8H506.5z M506.5,226.6c3.4,0,6.1,1.2,8.4,3.5c2.2,2.4,3.3,5.2,3.3,8.7c0,3.4-1.1,6.3-3.3,8.7c-2.2,2.4-5,3.5-8.4,3.5h-9.6
		v-24.4H506.5z"/>
	<polygon class="st6" points="32.1,170.6 32.1,177.5 22.1,177.5 22.1,207.5 14.9,207.5 14.9,177.5 4.9,177.5 4.9,170.6 	"/>
	<path class="st6" d="M42.6,194H53l-5.3-15.1L42.6,194z M57.8,207.5l-2.3-6.6H40.2l-2.2,6.6h-7.9l12.9-36.9h9l13,36.9H57.8z"/>
	<path class="st6" d="M83.4,200.5c3.2,0,5.8-1.1,7.8-3.2c2-2.1,3-4.9,3-8.3c0-3.4-1-6.2-3-8.3c-2-2.1-4.6-3.2-7.8-3.2H76v23H83.4z
		 M83.4,170.6c5.1,0,9.3,1.8,12.7,5.3c3.4,3.6,5.1,7.9,5.1,13.1c0,5.2-1.7,9.6-5.1,13.1c-3.4,3.6-7.6,5.3-12.7,5.3H68.7v-36.9H83.4z
		"/>
	<path class="st6" d="M155.8,187.6v2.8c0,5.3-1.7,9.5-5.1,12.8c-3.4,3.3-7.7,4.9-13.1,4.9c-5.7,0-10.4-1.9-14.2-5.6
		c-3.7-3.7-5.6-8.2-5.6-13.6c0-5.4,1.9-9.9,5.6-13.7c3.7-3.7,8.3-5.6,13.8-5.6c3.4,0,6.6,0.8,9.4,2.3c2.8,1.6,5.1,3.6,6.6,6.3
		l-6.2,3.6c-0.9-1.5-2.2-2.7-4-3.7c-1.8-0.9-3.8-1.4-5.9-1.4c-3.5,0-6.4,1.2-8.7,3.5c-2.3,2.3-3.4,5.2-3.4,8.7
		c0,3.5,1.2,6.4,3.5,8.6c2.3,2.3,5.4,3.4,9.2,3.4c2.8,0,5.1-0.6,7-1.9c1.8-1.2,3.1-3,3.8-5.1h-11.2v-6.4H155.8z"/>
	<polygon class="st6" points="168.2,200.5 182.3,200.5 182.3,207.5 160.9,207.5 160.9,170.6 168.2,170.6 	"/>
	<path class="st6" d="M193.1,197.7c2.3,2.3,5.1,3.4,8.5,3.4c3.4,0,6.2-1.1,8.5-3.4c2.3-2.3,3.4-5.2,3.4-8.7c0-3.5-1.1-6.4-3.4-8.7
		c-2.3-2.3-5.1-3.4-8.5-3.4c-3.4,0-6.2,1.1-8.5,3.4c-2.3,2.3-3.4,5.2-3.4,8.7C189.7,192.5,190.8,195.4,193.1,197.7 M215.2,202.7
		c-3.7,3.7-8.3,5.6-13.6,5.6c-5.3,0-9.9-1.9-13.6-5.6c-3.7-3.7-5.6-8.3-5.6-13.6c0-5.4,1.9-9.9,5.6-13.6c3.7-3.7,8.2-5.6,13.6-5.6
		c5.3,0,9.9,1.9,13.6,5.6c3.7,3.7,5.6,8.3,5.6,13.6C220.8,194.4,219,198.9,215.2,202.7z"/>
	<path class="st6" d="M241.6,200.7c1.2,0,2.3-0.4,3.1-1.2c0.8-0.8,1.2-1.9,1.2-3.1c0-1.2-0.4-2.3-1.2-3.1c-0.8-0.8-1.8-1.2-3.1-1.2
		h-8.4v8.7H241.6z M240.5,177.4h-7.3v8.1h7.3c1.1,0,2.1-0.4,2.8-1.2c0.8-0.8,1.1-1.7,1.1-2.9c0-1.2-0.4-2.1-1.1-2.9
		C242.6,177.7,241.7,177.4,240.5,177.4z M248.3,188.3c3.2,1.9,4.9,4.7,4.9,8.4c0,3.1-1.1,5.7-3.3,7.7c-2.2,2-4.9,3-8.2,3h-15.7
		v-36.9h14.6c3.2,0,5.8,1,8,2.9c2.2,2,3.2,4.4,3.2,7.5C251.7,184,250.6,186.5,248.3,188.3z"/>
	<path class="st6" d="M267,194h10.4l-5.3-15.1L267,194z M282.1,207.5l-2.3-6.6h-15.2l-2.2,6.6h-7.9l12.9-36.9h9l13,36.9H282.1z"/>
	<polygon class="st6" points="300.4,200.5 314.5,200.5 314.5,207.5 293.1,207.5 293.1,170.6 300.4,170.6 	"/>
	<path class="st6" d="M347.4,200.7c1.2,0,2.3-0.4,3.1-1.2c0.8-0.8,1.2-1.9,1.2-3.1c0-1.2-0.4-2.3-1.2-3.1c-0.8-0.8-1.8-1.2-3.1-1.2
		h-8.4v8.7H347.4z M346.3,177.4h-7.3v8.1h7.3c1.1,0,2.1-0.4,2.8-1.2c0.8-0.8,1.1-1.7,1.1-2.9c0-1.2-0.4-2.1-1.1-2.9
		C348.4,177.7,347.5,177.4,346.3,177.4z M354.1,188.3c3.2,1.9,4.9,4.7,4.9,8.4c0,3.1-1.1,5.7-3.3,7.7c-2.2,2-4.9,3-8.2,3h-15.7
		v-36.9h14.6c3.2,0,5.8,1,8,2.9c2.2,2,3.2,4.4,3.2,7.5C357.6,184,356.4,186.5,354.1,188.3z"/>
	<path class="st6" d="M371,177.4v10.9h7.5c1.4,0,2.6-0.5,3.5-1.6c1-1.1,1.5-2.4,1.5-3.9c0-1.5-0.5-2.8-1.5-3.9
		c-1-1.1-2.2-1.6-3.5-1.6H371z M383.9,207.5l-7.5-12.8H371v12.8h-7.3v-36.9h14.8c3.4,0,6.3,1.2,8.7,3.6c2.4,2.4,3.6,5.3,3.6,8.7
		c0,2.3-0.7,4.4-2,6.4c-1.3,2-3,3.4-5.2,4.4l8.2,13.9H383.9z"/>
	<path class="st6" d="M405.2,194h10.4l-5.3-15.1L405.2,194z M420.4,207.5l-2.3-6.6h-15.2l-2.2,6.6h-7.9l12.9-36.9h9l13,36.9H420.4z"
		/>
	<polygon class="st6" points="452.7,170.6 460,170.6 460,207.5 454.4,207.5 438.6,184.9 438.6,207.5 431.3,207.5 431.3,170.6 
		436.9,170.6 452.7,193.1 	"/>
	<path class="st6" d="M481.5,200.5c3.2,0,5.8-1.1,7.8-3.2c2-2.1,3-4.9,3-8.3c0-3.4-1-6.2-3-8.3c-2-2.1-4.6-3.2-7.8-3.2h-7.4v23
		H481.5z M481.5,170.6c5.1,0,9.3,1.8,12.7,5.3c3.4,3.6,5.1,7.9,5.1,13.1c0,5.2-1.7,9.6-5.1,13.1c-3.4,3.6-7.6,5.3-12.7,5.3h-14.7
		v-36.9H481.5z"/>
	<rect x="504.4" y="170.6" class="st6" width="7.3" height="36.9"/>
	<polygon class="st6" points="540,170.6 547.2,170.6 547.2,207.5 541.7,207.5 525.9,184.9 525.9,207.5 518.6,207.5 518.6,170.6 
		524.1,170.6 540,193.1 	"/>
	<path class="st6" d="M590.3,187.6v2.8c0,5.3-1.7,9.5-5.1,12.8c-3.4,3.3-7.7,4.9-13.1,4.9c-5.7,0-10.4-1.9-14.2-5.6
		c-3.7-3.7-5.6-8.2-5.6-13.6c0-5.4,1.9-9.9,5.6-13.7c3.7-3.7,8.3-5.6,13.8-5.6c3.4,0,6.6,0.8,9.4,2.3c2.8,1.6,5.1,3.6,6.6,6.3
		l-6.2,3.6c-0.9-1.5-2.2-2.7-4-3.7c-1.8-0.9-3.8-1.4-5.9-1.4c-3.5,0-6.4,1.2-8.7,3.5c-2.3,2.3-3.4,5.2-3.4,8.7
		c0,3.5,1.2,6.4,3.5,8.6c2.3,2.3,5.4,3.4,9.2,3.4c2.8,0,5.1-0.6,7-1.9c1.8-1.2,3.1-3,3.8-5.1h-11.2v-6.4H590.3z"/>
</g>
</svg>
